<!DOCTYPE html PUBLIC "-//W3C//DTD XHTML+RDFa 1.0//EN"
          "http://www.w3.org/MarkUp/DTD/xhtml-rdfa-1.dtd">			 
<html 
	xmlns="http://www.w3.org/1999/xhtml"
    xmlns:xs="http://www.w3.org/2001/XMLSchema#"
    xmlns:dc="http://purl.org/dc/terms/"
	xmlns:foaf="http://xmlns.com/foaf/0.1/"
	xmlns:vcard="urn:ietf:rfc:2426#"
	xmlns:aa="http://activearchives.org/terms/">
	<head>
		<title>active archives</title>

<style type="text/css" media="screen">
.aa-annotation {
    padding: 5px;
    border: 1px solid black;
    margin-bottom: -1px;
}
*[property] {
    color: green;
}
</style>
</head>
<body>
<form method="get" action="">
<input type="text" name="url" value="http://video.constantvzw.org/vj10/simon-yuill-2.ogg" />
<input type="submit" />
</form>
<h2>http://video.constantvzw.org/vj10/simon-yuill-2.ogg</h2>

<div class="aa-annotation" about="http://video.constantvzw.org/vj10/simon-yuill-2.ogg">

<dl>
<dt>Content-type</dt>
<dd property="aa:content_type">audio/ogg</dd>

<dt>Content-length</dt>
<dd property="aa:content_length" content="43475477">41.5 MB</dd>
</dl>

</div>

<div class="aa-annotation" about="http://video.constantvzw.org/vj10/simon-yuill-2.ogg"><pre>FFmpeg version 0.6.2-4:0.6.2-1ubuntu1, Copyright (c) 2000-2010 the Libav developers
  built on Mar 22 2011 15:55:04 with gcc 4.5.2
  configuration: --extra-version=4:0.6.2-1ubuntu1 --prefix=/usr --enable-avfilter --enable-avfilter-lavf --enable-vdpau --enable-bzlib --enable-libgsm --enable-libschroedinger --enable-libspeex --enable-libtheora --enable-libvorbis --enable-pthreads --enable-zlib --enable-libvpx --disable-stripping --enable-runtime-cpudetect --enable-vaapi --enable-gpl --enable-postproc --enable-swscale --enable-x11grab --enable-libdc1394 --enable-shared --disable-static
  libavutil     50.15. 1 / 50.15. 1
  libavcodec    52.72. 2 / 52.72. 2
  libavformat   52.64. 2 / 52.64. 2
  libavdevice   52. 2. 0 / 52. 2. 0
  libavfilter    1.19. 0 /  1.19. 0
  libswscale     0.11. 0 /  0.11. 0
  libpostproc   51. 2. 0 / 51. 2. 0
[theora @ 0x1515250]7 bits left in packet 82
Input #0, ogg, from 'http://video.constantvzw.org/vj10/simon-yuill-2.ogg':
  Duration: <span property="aa:duration">00:18:05.68</span>, start: 0.000000, bitrate: <span property="aa:bitrate">320</span> kb/s
    Stream #0.0: Video: <span property="aa:videoinfo">theora, yuv420p, [PAR 295:264 DAR 295:216], 25 tbr, 25 tbn, 25 tbc</span>, <span property="aa:width">352</span>x<span property="aa:height">288</span>, <span property="aa:fps">25</span> fps
    Stream #0.1: Audio: <span property="aa:audioinfo">vorbis, s16, 64 kb/s</span>, <span property="aa:audiorate">32000</span> Hz, <span property="aa:audiochannels">stereo</span>
    Metadata:
      ENCODER         : ffmpeg2theora 0.19
At least one output file must be specified
</pre></div>

</body>
</html>
